# Alias OBJ Model File
# Exported from SketchUp, (c) 2000-2012 Trimble Navigation Limited
# File units = inches

mtllib cube4of5.mtl

g Mesh1 cube1 Group1 Model

usemtl M_0115_MediumPurple
v 1 1 -1
vt -1 0
vn -1 0 -0
v 1 1 -0
vt 0 0
v 1 2 -0
vt 0 1
v 1 2 -1
vt -1 1
f 1/1/1 2/2/1 3/3/1 4/4/1 

vn 0 -1 -0
vt 1.77636e-15 1
v 2 1 -1
v 2 1 -0
f 2/2/2 1/5/2 5/4/2 6/1/2 

vn 0 0 -1
vt 1.77636e-15 0
v 2 2 -1
f 5/1/3 1/6/3 4/5/3 7/4/3 

vt -1.77636e-15 1
vn 0 1 -0
v 2 2 -0
vt 1 0
vt 1 1
f 4/7/4 3/2/4 8/8/4 7/9/4 

vn 0 0 1
f 2/2/5 6/8/5 8/9/5 3/3/5 

vn 1 0 -0
f 6/2/6 5/8/6 7/9/6 8/3/6 

g Mesh2 cube2 Group1 Model

v 1 0 -2
v 1 0 -1
v 1 1 -1
v 1 1 -2
f 9/1/1 10/2/1 11/3/1 12/4/1 

v 2 0 -2
v 2 0 -1
f 10/2/2 9/5/2 13/4/2 14/1/2 

v 2 1 -2
f 13/1/3 9/6/3 12/5/3 15/4/3 

v 2 1 -1
f 12/7/4 11/2/4 16/8/4 15/9/4 

f 10/2/5 14/8/5 16/9/5 11/3/5 

f 14/2/6 13/8/6 15/9/6 16/3/6 

g Mesh3 cube3 Group1 Model

v 1 0 -1
v 1 0 -0
f 17/1/1 18/2/1 2/3/1 1/4/1 

v 2 0 -1
v 2 0 -0
f 18/2/2 17/5/2 19/4/2 20/1/2 

f 19/1/3 17/6/3 1/5/3 5/4/3 

f 1/7/4 2/2/4 6/8/4 5/9/4 

f 18/2/5 20/8/5 6/9/5 2/3/5 

f 20/2/6 19/8/6 5/9/6 6/3/6 

g Mesh4 cube4 Group1 Model

v -1.77636e-15 0 -2
v 0 0 -1
v 0 1 -1
v -1.77636e-15 1 -2
f 21/1/1 22/2/1 23/3/1 24/4/1 

v 1 0 -2
f 22/2/2 21/5/2 25/4/2 17/1/2 

v 1 1 -2
f 25/1/3 21/6/3 24/5/3 26/4/3 

f 24/7/4 23/2/4 1/8/4 26/9/4 

f 22/2/5 17/8/5 1/9/5 23/3/5 

f 17/2/6 25/8/6 26/9/6 1/3/6 

g Mesh5 cube5 Group1 Model

v 1 3 -0
v 1 3 -1
f 4/1/1 3/2/1 27/3/1 28/4/1 

f 3/2/2 4/5/2 7/4/2 8/1/2 

v 2 3 -1
f 7/1/3 4/6/3 28/5/3 29/4/3 

v 2 3 -0
f 28/7/4 27/2/4 30/8/4 29/9/4 

f 3/2/5 8/8/5 30/9/5 27/3/5 

f 8/2/6 7/8/6 29/9/6 30/3/6 

