# Blender v2.79 (sub 0) OBJ File: 'CameraTool.blend'
# www.blender.org
mtllib CameraTool.mtl
o handles_Cube.002
v -240.000000 134.999985 5.625000
v -240.000000 134.999985 -5.625000
v -240.000000 -135.000015 5.625000
v -240.000000 -135.000015 -5.625000
v -225.000000 134.999985 5.625000
v -225.000000 134.999985 -5.625000
v -225.000000 -135.000015 5.625000
v -225.000000 -135.000015 -5.625000
v 225.000000 -134.999985 -5.625000
v 225.000000 -134.999985 5.625000
v 225.000000 135.000015 -5.625000
v 225.000000 135.000015 5.625000
v 240.000000 -134.999985 -5.625000
v 240.000000 -134.999985 5.625000
v 240.000000 135.000015 -5.625000
v 240.000000 135.000015 5.625000
v 225.000000 120.000008 -5.625000
v 225.000000 120.000008 5.625000
v 210.000000 135.000015 -5.625000
v 210.000000 135.000015 5.625000
v -225.000000 -120.000008 -5.625000
v -225.000000 -120.000008 5.625000
v -210.000000 -135.000015 -5.625000
v -210.000000 -135.000015 5.625000
vt 0.744680 0.000000
vt 0.744680 0.944444
vt 0.680851 0.944444
vt 0.680850 0.000000
vt 0.936170 0.166667
vt 0.936170 0.111111
vt 1.000000 0.111111
vt 1.000000 0.166667
vt 1.000000 0.222222
vt 0.936170 0.222222
vt 0.744680 1.000000
vt 0.680851 1.000000
vt 0.595744 0.000000
vt 0.595744 0.055556
vt 0.595744 1.000000
vt 0.510638 1.000000
vt 0.510638 0.000000
vt 0.936170 0.055556
vt 0.872340 0.055556
vt 0.872340 0.000000
vt 0.936170 0.000000
vt 0.170213 1.000000
vt 0.085106 1.000000
vt 0.085106 0.944444
vt 0.425532 0.055555
vt 0.425532 0.000000
vt 0.510638 0.000000
vt 0.255319 1.000000
vt 0.255319 0.944444
vt 0.340425 1.000000
vt 0.680850 0.000000
vt 0.936170 0.222222
vt 1.000000 0.222222
vt 1.000000 0.277778
vt 0.936170 0.277778
vt 0.936170 1.000000
vt 0.872341 1.000000
vt 0.808510 0.000000
vt 0.808510 1.000000
vt 0.744681 1.000000
vt 0.744680 0.000000
vt 0.085106 0.000000
vt 0.000000 1.000000
vt 0.000000 0.000000
vt 0.255319 0.000000
vt 0.170213 1.000000
vt 0.170213 0.000000
vt 0.425532 1.000000
vt 0.340426 1.000000
vt 0.340425 0.000000
vt 0.936170 0.277778
vt 1.000000 0.277778
vt 1.000000 0.333333
vt 0.936170 0.333333
vt 0.808510 0.000000
vt 0.872340 0.000000
vt 0.872340 1.000000
vt 0.808511 1.000000
vt 1.000000 0.111111
vt 0.936170 0.111111
vt 0.936170 0.055556
vt 0.936170 0.000000
vt 1.000000 0.000000
vt 1.000000 0.055556
vn 1.0000 0.0000 0.0000
vn 0.0000 1.0000 0.0000
vn 0.7071 0.7071 0.0000
vn 0.0000 0.0000 1.0000
vn -0.7071 -0.7071 0.0000
vn 0.0000 0.0000 -1.0000
vn 0.0000 -1.0000 0.0000
vn -1.0000 0.0000 0.0000
usemtl Material.001
s off
f 5/1/1 22/2/1 21/3/1 6/4/1
f 12/5/2 16/6/2 15/7/2 11/8/2 19/9/2 20/10/2
f 21/3/3 22/2/3 24/11/3 23/12/3
f 7/13/4 22/14/4 5/15/4 1/16/4 3/17/4
f 17/18/5 18/19/5 20/20/5 19/21/5
f 19/22/6 11/23/6 17/24/6
f 18/25/4 12/26/4 20/27/4
f 8/28/6 21/29/6 23/30/6
f 7/13/4 24/31/4 22/14/4
f 10/32/7 9/33/7 13/34/7 14/35/7
f 18/19/8 17/18/8 9/36/8 10/37/8
f 16/38/1 14/39/1 13/40/1 15/41/1
f 9/42/6 17/24/6 11/23/6 15/43/6 13/44/6
f 6/45/6 21/29/6 8/28/6 4/46/6 2/47/6
f 18/25/4 10/48/4 14/49/4 16/50/4 12/26/4
f 5/51/2 6/52/2 2/53/2 1/54/2
f 4/55/8 3/56/8 1/57/8 2/58/8
f 23/59/7 24/60/7 7/61/7 3/62/7 4/63/7 8/64/7
o screen_Cube.001
v 225.000000 -131.352264 -1.875000
v 225.000000 -131.352264 1.875000
v -225.000000 -131.352295 -1.875000
v -225.000000 -131.352295 1.875000
v 225.000000 131.897751 -1.875000
v 225.000000 131.897751 1.875000
v -225.000000 131.897720 -1.875000
v -225.000000 131.897720 1.875000
vt 0.000000 0.000000
vt 0.492977 0.000000
vt 0.492977 1.000000
vt 0.000000 1.000000
vt 0.985955 1.000000
vt 0.492977 1.000000
vt 0.492977 0.000000
vt 0.985955 0.000000
vt 0.985955 1.000000
vt 0.985955 0.000000
vt 0.992977 0.000000
vt 0.992977 1.000000
vt 0.992977 1.000000
vt 0.992977 0.000000
vt 1.000000 0.000000
vt 1.000000 1.000000
vn 0.0000 0.0000 1.0000
vn 0.0000 0.0000 -1.0000
vn -0.0000 1.0000 0.0000
vn 0.0000 -1.0000 0.0000
usemtl Material.002
s off
f 26/65/9 30/66/9 32/67/9 28/68/9
f 29/69/10 25/70/10 27/71/10 31/72/10
f 32/73/11 30/74/11 29/75/11 31/76/11
f 26/77/12 28/78/12 27/79/12 25/80/12
