# Alias OBJ Model File
# Exported from SketchUp, (c) 2000-2012 Trimble Navigation Limited
# File units = inches

mtllib Puzzle5x5.mtl

g Mesh1 Group1 Model

usemtl FrontColor
v 1.25 0 -1.25
vt -1.25 1.25
vn 0 -1 -0
v 2.5 0 -1.25
vt -2.5 1.25
v 2.5 0 -0
vt -2.5 0
v 1.25 0 -0
vt -1.25 0
f 1/1/1 2/2/1 3/3/1 4/4/1 

v 1.25 0 -2.5
vt -1.25 2.5
v 2.5 0 -2.5
vt -2.5 2.5
f 5/5/1 6/6/1 2/2/1 1/1/1 

v 1.25 0 -3.75
vt -1.25 3.75
v 2.5 0 -3.75
vt -2.5 3.75
f 7/7/1 8/8/1 6/6/1 5/5/1 

v 1.25 0 -5
vt -1.25 5
v 2.5 0 -5
vt -2.5 5
f 9/9/1 10/10/1 8/8/1 7/7/1 

v 1.25 0 -6.25
vt -1.25 6.25
v 2.5 0 -6.25
vt -2.5 6.25
f 11/11/1 12/12/1 10/10/1 9/9/1 

vt 1.25 0
vn 0 0 1
vt 2.5 0
v 2.5 1.25 -6.25
vt 2.5 1.25
v 1.25 1.25 -6.25
vt 1.25 1.25
f 11/13/2 12/14/2 13/15/2 14/16/2 

vt -6.25 0
vn -1 0 -0
vt -5 0
v 2.5 1.25 -5
vt -5 1.25
vt -6.25 1.25
f 12/17/3 10/18/3 15/19/3 13/20/3 

v 3.75 0 -6.25
vt -3.75 6.25
v 3.75 0 -5
vt -3.75 5
f 12/12/1 16/21/1 17/22/1 10/10/1 

vt 3.75 0
v 3.75 1.25 -6.25
vt 3.75 1.25
f 12/14/2 16/23/2 18/24/2 13/15/2 

v 3.75 1.25 -5
f 16/17/3 17/18/3 19/19/3 18/20/3 

v 5 0 -6.25
vt -5 6.25
v 5 0 -5
vt -5 5
f 16/21/1 20/25/1 21/26/1 17/22/1 

vt 5 0
v 5 1.25 -6.25
vt 5 1.25
f 16/23/2 20/27/2 22/28/2 18/24/2 

v 6.25 0 -6.25
vt 6.25 0
v 6.25 1.25 -6.25
vt 6.25 1.25
f 20/27/2 23/29/2 24/30/2 22/28/2 

vt -6.25 6.25
v 6.25 0 -5
vt -6.25 5
f 20/25/1 23/31/1 25/32/1 21/26/1 

v 6.25 1.25 -5
f 23/17/3 25/18/3 26/19/3 24/20/3 

v 6.25 0 -3.75
vt -3.75 0
v 6.25 1.25 -3.75
vt -3.75 1.25
f 25/18/3 27/33/3 28/34/3 26/19/3 

vt -6.25 3.75
v 5 0 -3.75
vt -5 3.75
f 21/26/1 25/32/1 27/35/1 29/36/1 

v 6.25 0 -2.5
vt -6.25 2.5
v 5 0 -2.5
vt -5 2.5
f 29/36/1 27/35/1 30/37/1 31/38/1 

v 6.25 1.25 -2.5
f 27/33/3 30/3/3 32/2/3 28/34/3 

v 6.25 0 -1.25
v 6.25 1.25 -1.25
f 30/3/3 33/4/3 34/1/3 32/2/3 

v 5 0 -1.25
f 31/38/1 30/37/1 33/20/1 35/19/1 

v 6.25 0 -0
v 5 0 -0
f 35/19/1 33/20/1 36/17/1 37/18/1 

v 5 1.25 -1.25
f 35/27/2 33/29/2 34/30/2 38/28/2 

v 3.75 0 -1.25
v 3.75 1.25 -1.25
f 39/23/2 35/27/2 38/28/2 40/24/2 

v 3.75 0 -0
f 39/34/1 35/19/1 37/18/1 41/33/1 

v 3.75 0 -2.5
vt -3.75 2.5
f 42/39/1 31/38/1 35/19/1 39/34/1 

v 3.75 0 -3.75
vt -3.75 3.75
f 43/40/1 29/36/1 31/38/1 42/39/1 

f 17/22/1 21/26/1 29/36/1 43/40/1 

v 5 1.25 -3.75
v 5 1.25 -5
f 21/18/3 29/33/3 44/34/3 45/19/3 

v 5 1.25 -2.5
f 29/33/3 31/3/3 46/2/3 44/34/3 

v 3.75 1.25 -2.5
f 42/23/2 31/27/2 46/28/2 47/24/2 

v 2.5 1.25 -2.5
f 6/14/2 42/23/2 47/24/2 48/15/2 

f 6/6/1 42/39/1 39/34/1 2/2/1 

f 8/8/1 43/40/1 42/39/1 6/6/1 

f 10/10/1 17/22/1 43/40/1 8/8/1 

v 3.75 1.25 -3.75
f 17/18/3 43/33/3 49/34/3 19/19/3 

v 2.5 1.25 -3.75
f 8/33/3 6/3/3 48/2/3 50/34/3 

v 2.5 1.25 -1.25
f 6/3/3 2/4/3 51/1/3 48/2/3 

vt 0 0
v 2.5 1.25 -0
vt 0 1.25
f 2/4/3 3/41/3 52/42/3 51/1/3 

f 2/2/1 39/34/1 41/33/1 3/3/1 

v 3.75 1.25 -0
f 3/14/2 41/23/2 53/24/2 52/15/2 

v 5 1.25 -0
f 41/23/2 37/27/2 54/28/2 53/24/2 

v 6.25 1.25 -0
f 36/29/2 55/30/2 54/28/2 37/27/2 

v 1.25 1.25 -0
f 4/13/2 3/14/2 52/15/2 56/16/2 

v 0 0 -0
v 0 1.25 -0
f 57/41/2 4/13/2 56/16/2 58/42/2 

v 0 0 -1.25
f 59/42/1 1/1/1 4/4/1 57/41/1 

v 1.25 1.25 -1.25
v 0 1.25 -1.25
f 59/41/2 1/13/2 60/16/2 61/42/2 

v 0 0 -2.5
vt 0 2.5
f 62/43/1 5/5/1 1/1/1 59/42/1 

v 0 0 -3.75
vt 0 3.75
f 63/44/1 7/7/1 5/5/1 62/43/1 

v 0 0 -5
vt 0 5
f 64/45/1 9/9/1 7/7/1 63/44/1 

v 0 0 -6.25
vt 0 6.25
f 65/46/1 11/11/1 9/9/1 64/45/1 

v 0 1.25 -6.25
f 65/41/2 11/13/2 14/16/2 66/42/2 

v 0 1.25 -5
f 65/17/3 64/18/3 67/19/3 66/20/3 

v 0 1.25 -3.75
f 64/18/3 63/33/3 68/34/3 67/19/3 

v 0 1.25 -2.5
f 63/33/3 62/3/3 69/2/3 68/34/3 

f 62/3/3 59/4/3 61/1/3 69/2/3 

f 59/4/3 57/41/3 58/42/3 61/1/3 

v 1.25 1.25 -3.75
v 1.25 1.25 -5
f 9/18/3 7/33/3 70/34/3 71/19/3 

v 1.25 1.25 -2.5
f 7/33/3 5/3/3 72/2/3 70/34/3 

g Mesh2 Group2 Model

v 3.75 1.25 -3.33067e-16
v 5 1.25 -3.33067e-16
v 5 2.5 -3.33067e-16
v 3.75 2.5 -3.33067e-16
f 73/23/2 74/27/2 75/28/2 76/24/2 

f 40/34/1 38/19/1 74/18/1 73/33/1 

f 47/39/1 46/38/1 38/19/1 40/34/1 

f 49/40/1 44/36/1 46/38/1 47/39/1 

v 5 2.5 -3.75
v 3.75 2.5 -3.75
f 49/23/2 44/27/2 77/28/2 78/24/2 

f 19/22/1 45/26/1 44/36/1 49/40/1 

f 18/21/1 22/25/1 45/26/1 19/22/1 

v 5 2.5 -6.25
v 3.75 2.5 -6.25
f 18/23/2 22/27/2 79/28/2 80/24/2 

v 5 2.5 -5
f 22/17/3 45/18/3 81/19/3 79/20/3 

f 22/25/1 24/31/1 26/32/1 45/26/1 

v 6.25 2.5 -6.25
f 22/27/2 24/29/2 82/30/2 79/28/2 

v 6.25 2.5 -5
f 24/17/3 26/18/3 83/19/3 82/20/3 

v 6.25 2.5 -3.75
f 26/18/3 28/33/3 84/34/3 83/19/3 

f 45/26/1 26/32/1 28/35/1 44/36/1 

f 44/36/1 28/35/1 32/37/1 46/38/1 

v 6.25 2.5 -2.5
f 28/33/3 32/3/3 85/2/3 84/34/3 

v 6.25 2.5 -1.25
f 32/3/3 34/4/3 86/1/3 85/2/3 

f 46/38/1 32/37/1 34/20/1 38/19/1 

v 6.25 1.25 -3.33067e-16
f 38/19/1 34/20/1 87/17/1 74/18/1 

v 6.25 2.5 -3.33067e-16
f 34/4/3 87/41/3 88/42/3 86/1/3 

f 74/27/2 87/29/2 88/30/2 75/28/2 

v 5 2.5 -2.5
f 44/33/3 46/3/3 89/2/3 77/34/3 

f 45/18/3 44/33/3 77/34/3 81/19/3 

v 3.75 2.5 -5
f 19/23/2 45/27/2 81/28/2 90/24/2 

v 2.5 2.5 -5
f 15/14/2 19/23/2 90/24/2 91/15/2 

f 15/10/1 19/22/1 49/40/1 50/8/1 

f 50/8/1 49/40/1 47/39/1 48/6/1 

f 48/6/1 47/39/1 40/34/1 51/2/1 

v 3.75 2.5 -2.5
v 2.5 2.5 -2.5
f 48/14/2 47/23/2 92/24/2 93/15/2 

v 3.75 2.5 -1.25
f 47/3/3 40/4/3 94/1/3 92/2/3 

v 5 2.5 -1.25
f 40/23/2 38/27/2 95/28/2 94/24/2 

v 1.25 2.5 -2.5
f 72/13/2 48/14/2 93/15/2 96/16/2 

f 72/5/1 48/6/1 51/2/1 60/1/1 

f 70/7/1 50/8/1 48/6/1 72/5/1 

f 71/9/1 15/10/1 50/8/1 70/7/1 

v 1.25 2.5 -5
f 71/13/2 15/14/2 91/15/2 97/16/2 

f 14/11/1 13/12/1 15/10/1 71/9/1 

v 2.5 2.5 -6.25
v 1.25 2.5 -6.25
f 14/13/2 13/14/2 98/15/2 99/16/2 

f 13/14/2 18/23/2 80/24/2 98/15/2 

v 0 2.5 -6.25
f 66/41/2 14/13/2 99/16/2 100/42/2 

f 66/46/1 14/11/1 71/9/1 67/45/1 

f 67/45/1 71/9/1 70/7/1 68/44/1 

v 1.25 2.5 -3.75
f 71/18/3 70/33/3 101/34/3 97/19/3 

f 68/44/1 70/7/1 72/5/1 69/43/1 

f 69/43/1 72/5/1 60/1/1 61/42/1 

v 1.25 2.5 -1.25
f 72/3/3 60/4/3 102/1/3 96/2/3 

v 1.25 1.25 -3.33067e-16
v 1.25 2.5 -3.33067e-16
f 60/4/3 103/41/3 104/42/3 102/1/3 

v 2.5 1.25 -3.33067e-16
f 60/1/1 51/2/1 105/3/1 103/4/1 

f 51/2/1 40/34/1 73/33/1 105/3/1 

v 2.5 2.5 -3.33067e-16
f 105/14/2 73/23/2 76/24/2 106/15/2 

f 103/13/2 105/14/2 106/15/2 104/16/2 

v 0 1.25 -3.33067e-16
v 0 2.5 -3.33067e-16
f 107/41/2 103/13/2 104/16/2 108/42/2 

v 0 2.5 -1.25
f 61/4/3 107/41/3 108/42/3 109/1/3 

v 0 2.5 -2.5
f 69/3/3 61/4/3 109/1/3 110/2/3 

v 0 2.5 -3.75
f 68/33/3 69/3/3 110/2/3 111/34/3 

v 0 2.5 -5
f 67/18/3 68/33/3 111/34/3 112/19/3 

f 66/17/3 67/18/3 112/19/3 100/20/3 

v 2.5 2.5 -3.75
f 50/33/3 48/3/3 93/2/3 113/34/3 

g Mesh3 Group3 Model

f 95/19/1 86/20/1 88/17/1 75/18/1 

f 89/38/1 85/37/1 86/20/1 95/19/1 

f 77/36/1 84/35/1 85/37/1 89/38/1 

v 6.25 3.75 -2.5
v 6.25 3.75 -3.75
f 84/33/3 85/3/3 114/2/3 115/34/3 

v 6.25 3.75 -1.25
f 85/3/3 86/4/3 116/1/3 114/2/3 

v 6.25 3.75 -3.33067e-16
f 86/4/3 88/41/3 117/42/3 116/1/3 

v 5 3.75 -3.33067e-16
f 75/27/2 88/29/2 117/30/2 118/28/2 

v 3.75 3.75 -3.33067e-16
f 76/23/2 75/27/2 118/28/2 119/24/2 

f 94/34/1 95/19/1 75/18/1 76/33/1 

f 92/39/1 89/38/1 95/19/1 94/34/1 

f 78/40/1 77/36/1 89/38/1 92/39/1 

f 90/22/1 81/26/1 77/36/1 78/40/1 

f 80/21/1 79/25/1 81/26/1 90/22/1 

v 5 3.75 -6.25
v 3.75 3.75 -6.25
f 80/23/2 79/27/2 120/28/2 121/24/2 

v 6.25 3.75 -6.25
f 79/27/2 82/29/2 122/30/2 120/28/2 

f 79/25/1 82/31/1 83/32/1 81/26/1 

v 6.25 3.75 -5
f 82/17/3 83/18/3 123/19/3 122/20/3 

f 83/18/3 84/33/3 115/34/3 123/19/3 

v 2.5 3.75 -6.25
f 98/14/2 80/23/2 121/24/2 124/15/2 

f 98/12/1 80/21/1 90/22/1 91/10/1 

f 91/10/1 90/22/1 78/40/1 113/8/1 

f 113/8/1 78/40/1 92/39/1 93/6/1 

v 3.75 3.75 -2.5
v 3.75 3.75 -3.75
f 78/33/3 92/3/3 125/2/3 126/34/3 

v 3.75 3.75 -1.25
f 92/3/3 94/4/3 127/1/3 125/2/3 

v 5 3.75 -1.25
f 94/23/2 95/27/2 128/28/2 127/24/2 

v 5 3.75 -2.5
f 89/3/3 95/4/3 128/1/3 129/2/3 

v 5 3.75 -3.75
f 77/33/3 89/3/3 129/2/3 130/34/3 

v 5 3.75 -5
f 81/18/3 77/33/3 130/34/3 131/19/3 

v 3.75 3.75 -5
f 90/23/2 81/27/2 131/28/2 132/24/2 

v 2.5 3.75 -2.5
f 93/14/2 92/23/2 125/24/2 133/15/2 

v 1.25 3.75 -2.5
f 96/13/2 93/14/2 133/15/2 134/16/2 

v 2.5 2.5 -1.25
f 96/5/1 93/6/1 135/2/1 102/1/1 

f 101/7/1 113/8/1 93/6/1 96/5/1 

v 2.5 3.75 -3.75
v 1.25 3.75 -3.75
f 101/13/2 113/14/2 136/15/2 137/16/2 

f 97/9/1 91/10/1 113/8/1 101/7/1 

v 2.5 3.75 -5
v 1.25 3.75 -5
f 97/13/2 91/14/2 138/15/2 139/16/2 

f 99/11/1 98/12/1 91/10/1 97/9/1 

v 1.25 3.75 -6.25
f 99/13/2 98/14/2 124/15/2 140/16/2 

f 138/19/3 124/20/3 98/17/3 91/18/3 

f 91/18/3 113/33/3 136/34/3 138/19/3 

v 0 3.75 -6.25
f 100/41/2 99/13/2 140/16/2 141/42/2 

f 100/46/1 99/11/1 97/9/1 112/45/1 

f 112/45/1 97/9/1 101/7/1 111/44/1 

f 111/44/1 101/7/1 96/5/1 110/43/1 

f 110/43/1 96/5/1 102/1/1 109/42/1 

v 1.25 3.75 -1.25
f 96/3/3 102/4/3 142/1/3 134/2/3 

f 109/42/1 102/1/1 104/4/1 108/41/1 

f 102/1/1 135/2/1 106/3/1 104/4/1 

f 135/2/1 94/34/1 76/33/1 106/3/1 

v 2.5 3.75 -3.33067e-16
f 106/14/2 76/23/2 119/24/2 143/15/2 

v 1.25 3.75 -3.33067e-16
f 104/13/2 106/14/2 143/15/2 144/16/2 

v 0 3.75 -3.33067e-16
f 108/41/2 104/13/2 144/16/2 145/42/2 

v 0 3.75 -1.25
f 109/4/3 108/41/3 145/42/3 146/1/3 

v 0 3.75 -2.5
f 110/3/3 109/4/3 146/1/3 147/2/3 

v 0 3.75 -3.75
f 111/33/3 110/3/3 147/2/3 148/34/3 

v 0 3.75 -5
f 112/18/3 111/33/3 148/34/3 149/19/3 

f 100/17/3 112/18/3 149/19/3 141/20/3 

g Mesh4 Group4 Model

v 2.5 3.75 -1.25
f 150/2/1 127/34/1 119/33/1 143/3/1 

f 133/6/1 125/39/1 127/34/1 150/2/1 

f 136/8/1 126/40/1 125/39/1 133/6/1 

v 3.75 5 -3.75
v 2.5 5 -3.75
f 136/14/2 126/23/2 151/24/2 152/15/2 

f 138/10/1 132/22/1 126/40/1 136/8/1 

f 124/12/1 121/21/1 132/22/1 138/10/1 

v 3.75 5 -6.25
v 2.5 5 -6.25
f 124/14/2 121/23/2 153/24/2 154/15/2 

v 3.75 5 -5
f 121/17/3 132/18/3 155/19/3 153/20/3 

f 121/21/1 120/25/1 131/26/1 132/22/1 

v 5 5 -6.25
f 121/23/2 120/27/2 156/28/2 153/24/2 

v 5 5 -5
f 120/17/3 131/18/3 157/19/3 156/20/3 

f 120/25/1 122/31/1 123/32/1 131/26/1 

v 6.25 5 -6.25
f 120/27/2 122/29/2 158/30/2 156/28/2 

v 6.25 5 -5
f 122/17/3 123/18/3 159/19/3 158/20/3 

f 131/27/2 123/29/2 159/30/2 157/28/2 

f 131/26/1 123/32/1 115/35/1 130/36/1 

v 6.25 5 -3.75
f 123/18/3 115/33/3 160/34/3 159/19/3 

v 6.25 5 -2.5
f 115/33/3 114/3/3 161/2/3 160/34/3 

f 130/36/1 115/35/1 114/37/1 129/38/1 

f 129/38/1 114/37/1 116/20/1 128/19/1 

v 6.25 5 -1.25
f 114/3/3 116/4/3 162/1/3 161/2/3 

v 5 5 -1.25
f 128/27/2 116/29/2 162/30/2 163/28/2 

f 128/19/1 116/20/1 117/17/1 118/18/1 

v 6.25 5 -3.33067e-16
f 116/4/3 117/41/3 164/42/3 162/1/3 

v 5 5 -3.33067e-16
f 118/27/2 117/29/2 164/30/2 165/28/2 

v 3.75 5 -3.33067e-16
f 119/23/2 118/27/2 165/28/2 166/24/2 

f 127/34/1 128/19/1 118/18/1 119/33/1 

v 2.5 5 -3.33067e-16
f 143/14/2 119/23/2 166/24/2 167/15/2 

v 1.25 5 -3.33067e-16
f 144/13/2 143/14/2 167/15/2 168/16/2 

f 142/1/1 150/2/1 143/3/1 144/4/1 

f 134/5/1 133/6/1 150/2/1 142/1/1 

f 137/7/1 136/8/1 133/6/1 134/5/1 

v 2.5 5 -2.5
f 136/33/3 133/3/3 169/2/3 152/34/3 

v 3.75 5 -2.5
f 133/14/2 125/23/2 170/24/2 169/15/2 

v 3.75 5 -1.25
f 125/3/3 127/4/3 171/1/3 170/2/3 

v 2.5 5 -5
f 138/18/3 136/33/3 152/34/3 172/19/3 

f 148/44/1 137/7/1 134/5/1 147/43/1 

f 149/45/1 139/9/1 137/7/1 148/44/1 

f 141/46/1 140/11/1 139/9/1 149/45/1 

v 1.25 5 -6.25
v 0 5 -6.25
f 141/41/2 140/13/2 173/16/2 174/42/2 

f 140/13/2 124/14/2 154/15/2 173/16/2 

f 140/11/1 124/12/1 138/10/1 139/9/1 

v 1.25 5 -5
f 140/17/3 139/18/3 175/19/3 173/20/3 

v 1.25 5 -3.75
f 139/18/3 137/33/3 176/34/3 175/19/3 

v 1.25 5 -2.5
f 137/33/3 134/3/3 177/2/3 176/34/3 

v 0 5 -5
f 141/17/3 149/18/3 178/19/3 174/20/3 

v 0 5 -3.75
f 149/18/3 148/33/3 179/34/3 178/19/3 

v 0 5 -2.5
f 148/33/3 147/3/3 180/2/3 179/34/3 

v 0 5 -1.25
f 147/3/3 146/4/3 181/1/3 180/2/3 

f 147/43/1 134/5/1 142/1/1 146/42/1 

f 146/42/1 142/1/1 144/4/1 145/41/1 

v 1.25 5 -1.25
f 142/4/3 144/41/3 168/42/3 182/1/3 

v 0 5 -3.33067e-16
f 145/41/2 144/13/2 168/16/2 183/42/2 

f 146/4/3 145/41/3 183/42/3 181/1/3 

v 2.5 5 -1.25
f 142/13/2 150/14/2 184/15/2 182/16/2 

v 5 5 -2.5
f 129/3/3 128/4/3 163/1/3 185/2/3 

v 5 5 -3.75
f 130/33/3 129/3/3 185/2/3 186/34/3 

f 126/40/1 130/36/1 129/38/1 125/39/1 

f 126/23/2 130/27/2 186/28/2 151/24/2 

f 132/22/1 131/26/1 130/36/1 126/40/1 

g Mesh5 Group5 Model

v 3.75 6.25 -3.75
v 2.5 6.25 -3.75
f 152/14/2 151/23/2 187/24/2 188/15/2 

f 172/10/1 155/22/1 151/40/1 152/8/1 

f 154/12/1 153/21/1 155/22/1 172/10/1 

v 3.75 6.25 -6.25
v 2.5 6.25 -6.25
f 154/14/2 153/23/2 189/24/2 190/15/2 

v 5 6.25 -6.25
f 153/23/2 156/27/2 191/28/2 189/24/2 

f 153/21/1 156/25/1 157/26/1 155/22/1 

f 156/25/1 158/31/1 159/32/1 157/26/1 

v 6.25 6.25 -6.25
f 156/27/2 158/29/2 192/30/2 191/28/2 

v 6.25 6.25 -5
f 158/17/3 159/18/3 193/19/3 192/20/3 

v 6.25 6.25 -3.75
f 159/18/3 160/33/3 194/34/3 193/19/3 

f 157/26/1 159/32/1 160/35/1 186/36/1 

v 5 6.25 -3.75
f 186/27/2 160/29/2 194/30/2 195/28/2 

v 6.25 6.25 -2.5
f 160/33/3 161/3/3 196/2/3 194/34/3 

v 6.25 6.25 -1.25
f 161/3/3 162/4/3 197/1/3 196/2/3 

f 185/38/1 161/37/1 162/20/1 163/19/1 

f 163/19/1 162/20/1 164/17/1 165/18/1 

v 6.25 6.25 -3.33067e-16
f 162/4/3 164/41/3 198/42/3 197/1/3 

v 5 6.25 -3.33067e-16
f 165/27/2 164/29/2 198/30/2 199/28/2 

v 3.75 6.25 -3.33067e-16
f 166/23/2 165/27/2 199/28/2 200/24/2 

f 171/34/1 163/19/1 165/18/1 166/33/1 

v 5 6.25 -1.25
v 3.75 6.25 -1.25
f 171/23/2 163/27/2 201/28/2 202/24/2 

f 170/39/1 185/38/1 163/19/1 171/34/1 

f 151/40/1 186/36/1 185/38/1 170/39/1 

f 155/22/1 157/26/1 186/36/1 151/40/1 

v 5 6.25 -5
v 3.75 6.25 -5
f 155/23/2 157/27/2 203/28/2 204/24/2 

f 156/17/3 157/18/3 203/19/3 191/20/3 

v 5 6.25 -2.5
f 186/33/3 185/3/3 205/2/3 195/34/3 

f 152/8/1 151/40/1 170/39/1 169/6/1 

f 169/6/1 170/39/1 171/34/1 184/2/1 

f 184/2/1 171/34/1 166/33/1 167/3/1 

v 2.5 6.25 -1.25
f 184/14/2 171/23/2 202/24/2 206/15/2 

v 2.5 6.25 -2.5
f 169/3/3 184/4/3 206/1/3 207/2/3 

f 177/5/1 169/6/1 184/2/1 182/1/1 

f 176/7/1 152/8/1 169/6/1 177/5/1 

f 175/9/1 172/10/1 152/8/1 176/7/1 

v 2.5 6.25 -5
v 1.25 6.25 -5
f 175/13/2 172/14/2 208/15/2 209/16/2 

f 173/11/1 154/12/1 172/10/1 175/9/1 

v 1.25 6.25 -6.25
f 173/13/2 154/14/2 190/15/2 210/16/2 

v 0 6.25 -6.25
f 174/41/2 173/13/2 210/16/2 211/42/2 

f 174/46/1 173/11/1 175/9/1 178/45/1 

v 0 6.25 -5
f 178/41/2 175/13/2 209/16/2 212/42/2 

f 178/45/1 175/9/1 176/7/1 179/44/1 

v 1.25 6.25 -3.75
v 0 6.25 -3.75
f 179/41/2 176/13/2 213/16/2 214/42/2 

v 1.25 6.25 -2.5
f 176/33/3 177/3/3 215/2/3 213/34/3 

v 1.25 6.25 -1.25
f 177/3/3 182/4/3 216/1/3 215/2/3 

f 180/43/1 177/5/1 182/1/1 181/42/1 

f 181/42/1 182/1/1 168/4/1 183/41/1 

f 182/1/1 184/2/1 167/3/1 168/4/1 

v 2.5 6.25 -3.33067e-16
f 184/4/3 167/41/3 217/42/3 206/1/3 

v 1.25 6.25 -3.33067e-16
f 168/13/2 167/14/2 217/15/2 218/16/2 

f 167/14/2 166/23/2 200/24/2 217/15/2 

v 0 6.25 -3.33067e-16
f 183/41/2 168/13/2 218/16/2 219/42/2 

v 0 6.25 -1.25
f 181/4/3 183/41/3 219/42/3 220/1/3 

v 0 6.25 -2.5
f 180/3/3 181/4/3 220/1/3 221/2/3 

f 179/33/3 180/3/3 221/2/3 214/34/3 

f 178/18/3 179/33/3 214/34/3 212/19/3 

f 152/33/3 169/3/3 207/2/3 188/34/3 

g Mesh6 Model

vt -6.25 3.33067e-16
v 0 6.25 -0
f 192/31/1 198/47/1 222/41/1 211/46/1 

