# Alias OBJ Model File
# Exported from SketchUp, (c) 2000-2012 Trimble Navigation Limited
# File units = inches

mtllib Puzzle1.mtl

g Mesh1 cube1 Group1 Model

usemtl M_0047_Khaki
v 9.29721 1 -9.99166
vt -1 0
vn -2.77556e-17 0 1
v 10.2972 1 -9.99166
vt 0 0
v 10.2972 2 -9.99166
vt 0 1
v 9.29721 2 -9.99166
vt -1 1
f 1/1/1 2/2/1 3/3/1 4/4/1 

vn 0 -1 -0
vt 1.77636e-15 1
v 9.29721 1 -10.9917
v 10.2972 1 -10.9917
f 2/2/2 1/5/2 5/4/2 6/1/2 

vn -1 0 -2.77556e-17
vt 1.77636e-15 0
v 9.29721 2 -10.9917
f 5/1/3 1/6/3 4/5/3 7/4/3 

vt -1.77636e-15 1
vn 0 1 -0
v 10.2972 2 -10.9917
vt 1 0
vt 1 1
f 4/7/4 3/2/4 8/8/4 7/9/4 

vn 1 0 2.77556e-17
f 2/2/5 6/8/5 8/9/5 3/3/5 

vn 2.77556e-17 0 -1
f 6/2/6 5/8/6 7/9/6 8/3/6 

g Mesh2 cube2 Group1 Model

v 10.2972 3 -9.99166
v 9.29721 3 -9.99166
f 4/1/1 3/2/1 9/3/1 10/4/1 

f 3/2/2 4/5/2 7/4/2 8/1/2 

v 9.29721 3 -10.9917
f 7/1/3 4/6/3 10/5/3 11/4/3 

v 10.2972 3 -10.9917
f 10/7/4 9/2/4 12/8/4 11/9/4 

f 3/2/5 8/8/5 12/9/5 9/3/5 

f 8/2/6 7/8/6 11/9/6 12/3/6 

g Mesh3 cube3 Group1 Model

v 9.29721 2 -10.9917
v 9.29721 3 -10.9917
f 13/1/1 8/2/1 12/3/1 14/4/1 

v 9.29721 2 -11.9917
v 10.2972 2 -11.9917
f 8/2/2 13/5/2 15/4/2 16/1/2 

v 9.29721 3 -11.9917
f 15/1/3 13/6/3 14/5/3 17/4/3 

v 10.2972 3 -11.9917
f 14/7/4 12/2/4 18/8/4 17/9/4 

f 8/2/5 16/8/5 18/9/5 12/3/5 

f 16/2/6 15/8/6 17/9/6 18/3/6 

g Mesh4 cube4 Group1 Model

v 10.2972 2 -9.99166
v 11.2972 2 -9.99166
v 11.2972 3 -9.99166
v 10.2972 3 -9.99166
f 19/1/1 20/2/1 21/3/1 22/4/1 

v 11.2972 2 -10.9917
f 20/2/2 19/5/2 8/4/2 23/1/2 

f 8/1/3 19/6/3 22/5/3 12/4/3 

v 11.2972 3 -10.9917
f 22/7/4 21/2/4 24/8/4 12/9/4 

f 20/2/5 23/8/5 24/9/5 21/3/5 

f 23/2/6 8/8/6 12/9/6 24/3/6 

g Mesh5 cube5 Group1 Model

v 11.2972 2 -9.99166
v 12.2972 2 -9.99166
v 12.2972 3 -9.99166
v 11.2972 3 -9.99166
f 25/1/1 26/2/1 27/3/1 28/4/1 

v 12.2972 2 -10.9917
f 26/2/2 25/5/2 23/4/2 29/1/2 

f 23/1/3 25/6/3 28/5/3 24/4/3 

v 12.2972 3 -10.9917
f 28/7/4 27/2/4 30/8/4 24/9/4 

f 26/2/5 29/8/5 30/9/5 27/3/5 

f 29/2/6 23/8/6 24/9/6 30/3/6 

g Mesh6 cube6 Group2 Model

usemtl M_0102_RoyalBlue
v 8.48531 1 -14.6218
v 9.48531 1 -14.6218
v 9.48531 2 -14.6218
v 8.48531 2 -14.6218
f 31/1/1 32/2/1 33/3/1 34/4/1 

v 8.48531 1 -15.6218
v 9.48531 1 -15.6218
f 32/2/2 31/5/2 35/4/2 36/1/2 

v 8.48531 2 -15.6218
f 35/1/3 31/6/3 34/5/3 37/4/3 

v 9.48531 2 -15.6218
f 34/7/4 33/2/4 38/8/4 37/9/4 

f 32/2/5 36/8/5 38/9/5 33/3/5 

f 36/2/6 35/8/6 37/9/6 38/3/6 

g Mesh7 cube7 Group2 Model

v 10.4853 0 -14.6218
v 11.4853 0 -14.6218
v 11.4853 1 -14.6218
v 10.4853 1 -14.6218
f 39/1/1 40/2/1 41/3/1 42/4/1 

v 10.4853 0 -15.6218
v 11.4853 0 -15.6218
f 40/2/2 39/5/2 43/4/2 44/1/2 

v 10.4853 1 -15.6218
f 43/1/3 39/6/3 42/5/3 45/4/3 

v 11.4853 1 -15.6218
f 42/7/4 41/2/4 46/8/4 45/9/4 

f 40/2/5 44/8/5 46/9/5 41/3/5 

f 44/2/6 43/8/6 45/9/6 46/3/6 

g Mesh8 cube8 Group2 Model

v 10.4853 2 -14.6218
v 11.4853 2 -14.6218
v 11.4853 3 -14.6218
v 10.4853 3 -14.6218
f 47/1/1 48/2/1 49/3/1 50/4/1 

v 10.4853 2 -15.6218
v 11.4853 2 -15.6218
f 48/2/2 47/5/2 51/4/2 52/1/2 

v 10.4853 3 -15.6218
f 51/1/3 47/6/3 50/5/3 53/4/3 

v 11.4853 3 -15.6218
f 50/7/4 49/2/4 54/8/4 53/9/4 

f 48/2/5 52/8/5 54/9/5 49/3/5 

f 52/2/6 51/8/6 53/9/6 54/3/6 

g Mesh9 cube9 Group2 Model

v 9.48531 2 -14.6218
v 9.48531 3 -14.6218
f 55/1/1 47/2/1 50/3/1 56/4/1 

v 9.48531 2 -15.6218
v 10.4853 2 -15.6218
f 47/2/2 55/5/2 57/4/2 58/1/2 

v 9.48531 3 -15.6218
f 57/1/3 55/6/3 56/5/3 59/4/3 

v 10.4853 3 -15.6218
f 56/7/4 50/2/4 60/8/4 59/9/4 

f 47/2/5 58/8/5 60/9/5 50/3/5 

f 58/2/6 57/8/6 59/9/6 60/3/6 

g Mesh10 cube10 Group2 Model

v 9.48531 1 -14.6218
f 61/1/1 42/2/1 47/3/1 55/4/1 

v 9.48531 1 -15.6218
v 10.4853 1 -15.6218
f 42/2/2 61/5/2 62/4/2 63/1/2 

f 62/1/3 61/6/3 55/5/3 57/4/3 

f 55/7/4 47/2/4 58/8/4 57/9/4 

f 42/2/5 63/8/5 58/9/5 47/3/5 

f 63/2/6 62/8/6 57/9/6 58/3/6 

g Mesh11 cube11 Group2 Model

v 9.48531 0 -14.6218
f 64/1/1 39/2/1 42/3/1 61/4/1 

v 9.48531 0 -15.6218
v 10.4853 0 -15.6218
f 39/2/2 64/5/2 65/4/2 66/1/2 

f 65/1/3 64/6/3 61/5/3 62/4/3 

f 61/7/4 42/2/4 63/8/4 62/9/4 

f 39/2/5 66/8/5 63/9/5 42/3/5 

f 66/2/6 65/8/6 62/9/6 63/3/6 

g Mesh12 cube12 Group3 Model

usemtl M_0115_MediumPurple
v 16.694 1 -12.0219
vn -1 0 -0
v 16.694 1 -11.0219
v 16.694 2 -11.0219
v 16.694 2 -12.0219
f 67/1/7 68/2/7 69/3/7 70/4/7 

v 17.694 1 -12.0219
v 17.694 1 -11.0219
f 68/2/2 67/5/2 71/4/2 72/1/2 

vn 0 0 -1
v 17.694 2 -12.0219
f 71/1/8 67/6/8 70/5/8 73/4/8 

v 17.694 2 -11.0219
f 70/7/4 69/2/4 74/8/4 73/9/4 

vn 0 0 1
f 68/2/9 72/8/9 74/9/9 69/3/9 

vn 1 0 -0
f 72/2/10 71/8/10 73/9/10 74/3/10 

g Mesh13 cube13 Group3 Model

v 16.694 0 -13.0219
v 16.694 0 -12.0219
v 16.694 1 -13.0219
f 75/1/7 76/2/7 67/3/7 77/4/7 

v 17.694 0 -13.0219
v 17.694 0 -12.0219
f 76/2/2 75/5/2 78/4/2 79/1/2 

v 17.694 1 -13.0219
f 78/1/8 75/6/8 77/5/8 80/4/8 

v 17.694 1 -12.0219
f 77/7/4 67/2/4 81/8/4 80/9/4 

f 76/2/9 79/8/9 81/9/9 67/3/9 

f 79/2/10 78/8/10 80/9/10 81/3/10 

g Mesh14 cube14 Group3 Model

v 16.694 0 -11.0219
f 76/1/7 82/2/7 68/3/7 67/4/7 

v 17.694 0 -12.0219
v 17.694 0 -11.0219
f 82/2/2 76/5/2 83/4/2 84/1/2 

f 83/1/8 76/6/8 67/5/8 71/4/8 

f 67/7/4 68/2/4 72/8/4 71/9/4 

f 82/2/9 84/8/9 72/9/9 68/3/9 

f 84/2/10 83/8/10 71/9/10 72/3/10 

g Mesh15 cube15 Group3 Model

v 15.694 0 -13.0219
v 15.694 0 -12.0219
v 15.694 1 -12.0219
v 15.694 1 -13.0219
f 85/1/7 86/2/7 87/3/7 88/4/7 

v 16.694 0 -13.0219
f 86/2/2 85/5/2 89/4/2 76/1/2 

v 16.694 1 -13.0219
f 89/1/8 85/6/8 88/5/8 90/4/8 

f 88/7/4 87/2/4 67/8/4 90/9/4 

f 86/2/9 76/8/9 67/9/9 87/3/9 

f 76/2/10 89/8/10 90/9/10 67/3/10 

g Mesh16 cube16 Group3 Model

v 16.694 3 -11.0219
v 16.694 3 -12.0219
f 70/1/7 69/2/7 91/3/7 92/4/7 

f 69/2/2 70/5/2 73/4/2 74/1/2 

v 17.694 3 -12.0219
f 73/1/8 70/6/8 92/5/8 93/4/8 

v 17.694 3 -11.0219
f 92/7/4 91/2/4 94/8/4 93/9/4 

f 69/2/9 74/8/9 94/9/9 91/3/9 

f 74/2/10 73/8/10 93/9/10 94/3/10 

g Mesh17 cube17 Group4 Model

usemtl M_0076_Green
v 8.83011 -0.5 -1.29318
v 8.83011 -0.5 -0.293178
v 8.83011 0.5 -0.293178
v 8.83011 0.5 -1.29318
f 95/1/7 96/2/7 97/3/7 98/4/7 

v 9.83011 -0.5 -1.29318
v 9.83011 -0.5 -0.293178
f 96/2/2 95/5/2 99/4/2 100/1/2 

v 9.83011 0.5 -1.29318
f 99/1/8 95/6/8 98/5/8 101/4/8 

v 9.83011 0.5 -0.293178
f 98/7/4 97/2/4 102/8/4 101/9/4 

f 96/2/9 100/8/9 102/9/9 97/3/9 

f 100/2/10 99/8/10 101/9/10 102/3/10 

g Mesh18 cube18 Group4 Model

v 9.83011 -0.5 -3.29318
v 9.83011 -0.5 -2.29318
v 9.83011 0.5 -2.29318
v 9.83011 0.5 -3.29318
f 103/1/7 104/2/7 105/3/7 106/4/7 

v 10.8301 -0.5 -3.29318
v 10.8301 -0.5 -2.29318
f 104/2/2 103/5/2 107/4/2 108/1/2 

v 10.8301 0.5 -3.29318
f 107/1/8 103/6/8 106/5/8 109/4/8 

v 10.8301 0.5 -2.29318
f 106/7/4 105/2/4 110/8/4 109/9/4 

f 104/2/9 108/8/9 110/9/9 105/3/9 

f 108/2/10 107/8/10 109/9/10 110/3/10 

g Mesh19 cube19 Group4 Model

v 9.83011 -0.5 -2.29318
v 9.83011 -0.5 -1.29318
v 9.83011 0.5 -1.29318
v 9.83011 0.5 -2.29318
f 111/1/7 112/2/7 113/3/7 114/4/7 

v 10.8301 -0.5 -2.29318
v 10.8301 -0.5 -1.29318
f 112/2/2 111/5/2 115/4/2 116/1/2 

v 10.8301 0.5 -2.29318
f 115/1/8 111/6/8 114/5/8 117/4/8 

v 10.8301 0.5 -1.29318
f 114/7/4 113/2/4 118/8/4 117/9/4 

f 112/2/9 116/8/9 118/9/9 113/3/9 

f 116/2/10 115/8/10 117/9/10 118/3/10 

g Mesh20 cube20 Group4 Model

v 8.83011 -0.5 -2.29318
v 8.83011 -0.5 -1.29318
v 8.83011 0.5 -1.29318
v 8.83011 0.5 -2.29318
f 119/1/7 120/2/7 121/3/7 122/4/7 

v 9.83011 -0.5 -2.29318
f 120/2/2 119/5/2 123/4/2 112/1/2 

v 9.83011 0.5 -2.29318
f 123/1/8 119/6/8 122/5/8 124/4/8 

f 122/7/4 121/2/4 113/8/4 124/9/4 

f 120/2/9 112/8/9 113/9/9 121/3/9 

f 112/2/10 123/8/10 124/9/10 113/3/10 

g Mesh21 cube21 Group4 Model

v 8.83011 -1.5 -1.29318
v 8.83011 -1.5 -0.293178
f 125/1/7 126/2/7 96/3/7 95/4/7 

v 9.83011 -1.5 -1.29318
v 9.83011 -1.5 -0.293178
f 126/2/2 125/5/2 127/4/2 128/1/2 

f 127/1/8 125/6/8 95/5/8 99/4/8 

f 95/7/4 96/2/4 100/8/4 99/9/4 

f 126/2/9 128/8/9 100/9/9 96/3/9 

f 128/2/10 127/8/10 99/9/10 100/3/10 

g Mesh22 cube22 Group5 Model

usemtl M_0020_Red
v 4.13104 1 -8.84077
vn -1 0 3.747e-15
v 4.13104 1 -7.84077
v 4.13104 2 -7.84077
v 4.13104 2 -8.84077
f 129/1/11 130/2/11 131/3/11 132/4/11 

v 5.13104 1 -8.84077
v 5.13104 1 -7.84077
f 130/2/2 129/5/2 133/4/2 134/1/2 

vn -3.747e-15 0 -1
v 5.13104 2 -8.84077
f 133/1/12 129/6/12 132/5/12 135/4/12 

v 5.13104 2 -7.84077
f 132/7/4 131/2/4 136/8/4 135/9/4 

vn 3.747e-15 0 1
f 130/2/13 134/8/13 136/9/13 131/3/13 

vn 1 0 -3.747e-15
f 134/2/14 133/8/14 135/9/14 136/3/14 

g Mesh23 cube23 Group5 Model

v 2.13104 -1 -8.84077
v 2.13104 -1 -7.84077
v 2.13104 -1.77636e-15 -7.84077
v 2.13104 -1.77636e-15 -8.84077
f 137/1/11 138/2/11 139/3/11 140/4/11 

v 3.13104 -1 -8.84077
v 3.13104 -1 -7.84077
f 138/2/2 137/5/2 141/4/2 142/1/2 

v 3.13104 -1.77636e-15 -8.84077
f 141/1/12 137/6/12 140/5/12 143/4/12 

v 3.13104 -1.77636e-15 -7.84077
f 140/7/4 139/2/4 144/8/4 143/9/4 

f 138/2/13 142/8/13 144/9/13 139/3/13 

f 142/2/14 141/8/14 143/9/14 144/3/14 

g Mesh24 cube24 Group5 Model

v 4.13104 1 -9.84077
v 4.13104 1 -8.84077
v 4.13104 2 -8.84077
v 4.13104 2 -9.84077
f 145/1/11 146/2/11 147/3/11 148/4/11 

v 5.13104 1 -9.84077
v 5.13104 1 -8.84077
f 146/2/2 145/5/2 149/4/2 150/1/2 

v 5.13104 2 -9.84077
f 149/1/12 145/6/12 148/5/12 151/4/12 

v 5.13104 2 -8.84077
f 148/7/4 147/2/4 152/8/4 151/9/4 

f 146/2/13 150/8/13 152/9/13 147/3/13 

f 150/2/14 149/8/14 151/9/14 152/3/14 

g Mesh25 cube25 Group5 Model

v 3.13104 -1 -8.84077
v 3.13104 -1 -7.84077
v 3.13104 -1.77636e-15 -7.84077
v 3.13104 -1.77636e-15 -8.84077
f 153/1/11 154/2/11 155/3/11 156/4/11 

v 4.13104 -1 -8.84077
v 4.13104 -1 -7.84077
f 154/2/2 153/5/2 157/4/2 158/1/2 

v 4.13104 -1.77636e-15 -8.84077
f 157/1/12 153/6/12 156/5/12 159/4/12 

v 4.13104 -1.77636e-15 -7.84077
f 156/7/4 155/2/4 160/8/4 159/9/4 

f 154/2/13 158/8/13 160/9/13 155/3/13 

f 158/2/14 157/8/14 159/9/14 160/3/14 

g Mesh26 cube26 Group5 Model

v 4.13104 -1.77636e-15 -8.84077
v 4.13104 -1.77636e-15 -7.84077
f 161/1/11 162/2/11 130/3/11 129/4/11 

v 5.13104 -1.77636e-15 -8.84077
v 5.13104 -1.77636e-15 -7.84077
f 162/2/2 161/5/2 163/4/2 164/1/2 

f 163/1/12 161/6/12 129/5/12 133/4/12 

f 129/7/4 130/2/4 134/8/4 133/9/4 

f 162/2/13 164/8/13 134/9/13 130/3/13 

f 164/2/14 163/8/14 133/9/14 134/3/14 

g Mesh27 cube27 Group5 Model

v 4.13104 -1 -8.84077
v 4.13104 -1 -7.84077
f 165/1/11 166/2/11 162/3/11 161/4/11 

v 5.13104 -1 -8.84077
v 5.13104 -1 -7.84077
f 166/2/2 165/5/2 167/4/2 168/1/2 

f 167/1/12 165/6/12 161/5/12 163/4/12 

f 161/7/4 162/2/4 164/8/4 163/9/4 

f 166/2/13 168/8/13 164/9/13 162/3/13 

f 168/2/14 167/8/14 163/9/14 164/3/14 

