# Alias OBJ Model File
# Exported from SketchUp, (c) 2000-2012 Trimble Navigation Limited
# File units = inches

mtllib MazeBox.mtl

g Mesh1 Model

usemtl FrontColor
v 6 0 -6
vt -6 6
vn 0 -1 -0
v 6 0 -0
vt -6 0
v 0 0 -0
vt 0 0
v 0 0 -6
vt 0 6
f 1/1/1 2/2/1 3/3/1 4/4/1 

vn 1 0 -0
vt 6 0
v 6 6 -6
vt 6 6
v 6 6 -0
f 2/3/2 1/5/2 5/6/2 6/4/2 

vn 0 0 -1
v 0 6 -6
f 1/2/3 4/3/3 7/4/3 5/1/3 

vn -1 0 -0
v 0 6 -0
f 4/2/4 3/3/4 8/4/4 7/1/4 

vn 0 0 1
f 3/3/5 2/5/5 6/6/5 8/4/5 

vn 0 1 -0
f 6/5/6 5/6/6 7/4/6 8/3/6 

